<svg width="100" height="100" viewBox="0 0 100 100" fill="none" xmlns="http://www.w3.org/2000/svg">
<circle cx="50" cy="50" r="50" fill="#C29062"/>
<mask id="mask0_164_336" style="mask-type:alpha" maskUnits="userSpaceOnUse" x="14" y="9" width="64" height="72">
<rect x="14" y="9" width="63.2454" height="72" fill="#D9D9D9"/>
</mask>
<g mask="url(#mask0_164_336)">
<path d="M34.1456 66.3C36.3856 64.35 38.889 62.812 41.656 61.686C44.423 60.562 47.3218 60 50.3523 60C53.3828 60 56.2815 60.562 59.0485 61.686C61.8155 62.812 64.319 64.35 66.5589 66.3C68.0961 64.25 69.2934 61.925 70.1507 59.325C71.0063 56.725 71.4341 53.95 71.4341 51C71.4341 44.35 69.3812 38.687 65.2756 34.011C61.1681 29.337 56.1937 27 50.3523 27C44.5108 27 39.5373 29.337 35.4316 34.011C31.3242 38.687 29.2705 44.35 29.2705 51C29.2705 53.95 29.6991 56.725 30.5564 59.325C31.412 61.925 32.6084 64.25 34.1456 66.3ZM50.3523 54C47.761 54 45.5755 52.988 43.7958 50.964C42.0179 48.938 41.129 46.45 41.129 43.5C41.129 40.55 42.0179 38.062 43.7958 36.036C45.5755 34.012 47.761 33 50.3523 33C52.9436 33 55.1291 34.012 56.9087 36.036C58.6866 38.062 59.5756 40.55 59.5756 43.5C59.5756 46.45 58.6866 48.938 56.9087 50.964C55.1291 52.988 52.9436 54 50.3523 54ZM50.3523 81C46.7069 81 43.2811 80.212 40.0749 78.636C36.8687 77.062 34.0797 74.925 31.708 72.225C29.3363 69.525 27.4592 66.35 26.0766 62.7C24.6922 59.05 24 55.15 24 51C24 46.85 24.6922 42.95 26.0766 39.3C27.4592 35.65 29.3363 32.475 31.708 29.775C34.0797 27.075 36.8687 24.937 40.0749 23.361C43.2811 21.787 46.7069 21 50.3523 21C53.9977 21 57.4235 21.787 60.6297 23.361C63.8358 24.937 66.6248 27.075 68.9965 29.775C71.3682 32.475 73.2454 35.65 74.628 39.3C76.0123 42.95 76.7045 46.85 76.7045 51C76.7045 55.15 76.0123 59.05 74.628 62.7C73.2454 66.35 71.3682 69.525 68.9965 72.225C66.6248 74.925 63.8358 77.062 60.6297 78.636C57.4235 80.212 53.9977 81 50.3523 81Z" fill="#F0F8FF"/>
</g>
</svg>
