<svg width="121" height="120" viewBox="0 0 121 120" fill="none" xmlns="http://www.w3.org/2000/svg">
<circle cx="67.1345" cy="63.2322" r="50.7419" fill="#C29062"/>
<path d="M29.2737 7.41613C29.2737 11.5119 25.9534 14.8323 21.8575 14.8323C17.7617 14.8323 14.4414 11.5119 14.4414 7.41613C14.4414 3.32031 17.7617 0 21.8575 0C25.9534 0 29.2737 3.32031 29.2737 7.41613Z" fill="#C29062"/>
<circle cx="75.7228" cy="2.34194" r="2.34194" fill="#C29062"/>
<circle cx="116.317" cy="17.1741" r="4.68387" fill="#C29062"/>
<circle cx="118.658" cy="82.7482" r="2.34194" fill="#C29062"/>
<circle cx="115.535" cy="107.729" r="2.34194" fill="#C29062"/>
<path d="M7.80645 88.9931C7.80645 91.1488 6.05892 92.8963 3.90323 92.8963C1.74753 92.8963 0 91.1488 0 88.9931C0 86.8374 1.74753 85.0898 3.90323 85.0898C6.05892 85.0898 7.80645 86.8374 7.80645 88.9931Z" fill="#C29062"/>
<circle cx="37.0799" cy="116.707" r="2.73226" fill="#C29062"/>
<g clip-path="url(#clip0_79_663)">
<path d="M67.1357 44.4971C62.5958 44.4971 58.9023 48.1906 58.9023 52.7304C58.9023 57.2703 62.5958 60.9638 67.1357 60.9638C71.6756 60.9638 75.3691 57.2703 75.3691 52.7304C75.3691 48.1906 71.6756 44.4971 67.1357 44.4971Z" fill="white"/>
<path d="M77.3802 66.3426C75.1261 64.0539 72.1379 62.7935 68.966 62.7935H65.3067C62.1348 62.7935 59.1466 64.0539 56.8924 66.3426C54.6494 68.6202 53.4141 71.6265 53.4141 74.8081C53.4141 75.3133 53.8237 75.7229 54.3289 75.7229H79.9438C80.449 75.7229 80.8586 75.3133 80.8586 74.8081C80.8586 71.6265 79.6233 68.6202 77.3802 66.3426Z" fill="white"/>
</g>
<defs>
<clipPath id="clip0_79_663">
<rect width="31.2258" height="31.2258" fill="white" transform="translate(51.5234 44.4971)"/>
</clipPath>
</defs>
</svg>
